<?xml version="1.0" standalone="no"?>
<!DOCTYPE svg PUBLIC "-//W3C//DTD SVG 20010904//EN"
 "http://www.w3.org/TR/2001/REC-SVG-20010904/DTD/svg10.dtd">
<svg version="1.0" xmlns="http://www.w3.org/2000/svg"
 width="500.000000pt" height="500.000000pt" viewBox="0 0 500.000000 500.000000"
 preserveAspectRatio="xMidYMid meet">
<metadata>
Created by potrace 1.11, written by Peter Selinger 2001-2013
</metadata>
<g transform="translate(0.000000,500.000000) scale(0.100000,-0.100000)"
fill="#000000" stroke="none">
<path d="M3460 3411 l0 -61 33 0 c65 -1 174 -31 257 -71 119 -59 231 -171 288
-290 38 -78 72 -204 72 -264 0 -24 2 -25 60 -25 59 0 60 1 60 28 -1 15 -7 62
-15 105 -61 343 -338 598 -685 633 l-70 7 0 -62z"/>
<path d="M3460 3173 l0 -60 57 -7 c121 -14 254 -110 309 -221 14 -30 31 -83
37 -119 l11 -66 59 0 59 0 -7 53 c-35 255 -219 441 -469 472 l-56 7 0 -59z"/>
<path d="M3518 2914 c-76 -41 -74 -159 2 -199 57 -30 127 -10 155 45 53 103
-55 210 -157 154z"/>
<path d="M2700 2691 l0 -190 27 -21 c17 -14 29 -17 31 -10 2 6 -4 17 -14 25
-16 11 -19 30 -22 129 l-4 116 36 0 c25 0 36 4 36 15 0 10 -11 15 -35 15 l-35
0 0 55 c0 30 -4 55 -10 55 -6 0 -10 -70 -10 -189z"/>
<path d="M1768 2741 c-33 -29 -33 -30 -33 -124 0 -79 3 -98 19 -116 25 -27 86
-44 131 -35 55 10 41 24 -23 24 -87 0 -102 18 -102 121 0 44 4 89 10 99 15 27
74 44 110 31 38 -13 52 5 15 19 -49 19 -92 12 -127 -19z"/>
<path d="M1970 2620 c0 -93 4 -150 10 -150 6 0 10 46 10 118 0 64 4 122 8 129
11 18 64 35 89 28 16 -4 23 -1 23 10 0 18 -60 21 -93 4 -16 -9 -22 -9 -25 0
-2 6 -8 11 -13 11 -5 0 -9 -66 -9 -150z"/>
<path d="M2134 2756 c-3 -8 -4 -65 -2 -125 3 -105 4 -112 30 -138 22 -22 36
-27 77 -27 35 0 56 6 71 19 20 18 20 18 20 -27 0 -30 -7 -54 -20 -71 -11 -14
-20 -28 -20 -31 0 -13 21 -5 40 14 18 18 20 33 20 186 0 99 4 173 11 186 13
24 5 35 -15 19 -10 -9 -15 -42 -18 -122 -3 -102 -5 -112 -27 -130 -32 -26 -95
-25 -121 1 -18 18 -20 33 -20 134 0 106 -11 152 -26 112z"/>
<path d="M2440 2560 c0 -133 4 -210 10 -210 6 0 10 32 10 77 0 72 1 75 18 60
45 -41 130 -27 163 27 27 44 27 158 -1 204 -31 51 -93 66 -150 37 -27 -14 -30
-14 -30 0 0 8 -4 15 -10 15 -6 0 -10 -77 -10 -210z m136 180 c44 -17 53 -38
54 -124 0 -68 -3 -83 -22 -103 -30 -32 -90 -32 -123 2 -22 21 -25 33 -25 97 0
79 14 112 54 128 28 12 30 12 62 0z"/>
<path d="M2869 2741 c-28 -28 -29 -33 -29 -119 0 -75 3 -94 20 -115 47 -60
149 -52 183 13 14 27 17 53 15 113 -3 75 -5 80 -36 108 -46 41 -111 41 -153 0z
m144 -22 c13 -16 17 -40 17 -99 0 -98 -20 -130 -81 -130 -69 0 -98 55 -86 163
8 68 43 102 96 93 20 -3 44 -15 54 -27z"/>
</g>
</svg>
